<?xml version="1.0" encoding="utf-8"?>
<!-- Generator: Adobe Illustrator 27.2.0, SVG Export Plug-In . SVG Version: 6.00 Build 0)  -->
<svg version="1.1" id="Layer_1" xmlns="http://www.w3.org/2000/svg" xmlns:xlink="http://www.w3.org/1999/xlink" x="0px" y="0px"
	 viewBox="0 0 367.4 367.4" style="enable-background:new 0 0 367.4 367.4;" xml:space="preserve">
<style type="text/css">
	.st0{fill:#8E8EED;}
</style>
<g>
	<g>
		<rect x="309.7" y="241.6" class="st0" width="14.4" height="46.4"/>
		<polygon class="st0" points="331,241.6 331,288.8 367.4,310.8 367.4,219.6 		"/>
		<path class="st0" d="M242.5,191.9v-49.7c0-11.2-9.2-20.4-20.4-20.4h-85.4c-11.2,0-20.4,9.2-20.4,20.4v49.7
			c0,11.2-9.2,20.4-20.4,20.4H76.8c-11.2,0-20.4,9.2-20.4,20.4v100c0,11.2,9.2,20.4,20.4,20.4h225.6V212h-41.7
			C250.5,210.9,242.5,202.4,242.5,191.9z M281.6,332.5L281.6,332.5H79.5v-95.1h202.1V332.5z"/>
		<path class="st0" d="M263.5,108.7c4.3,5.6,12.3,6.8,17.9,2.5c5.6-4.3,6.8-12.3,2.5-17.9c-4.3-5.6-12.3-6.8-17.9-2.5
			C260.3,95,259.2,103,263.5,108.7z"/>
		<circle class="st0" cx="86.4" cy="100.9" r="12.8"/>
		<path class="st0" d="M203.6,109.8c-0.5-3.8-0.8-7.7-0.6-11.7l29.8,4.2c0.1,3.3,0.7,6.7,1.6,9.9c10.3,4.2,17.8,13.5,19.7,24.7
			c1.8,1,3.6,1.9,5.6,2.6l-4.1,28.8c-0.3-0.1-0.6-0.2-1-0.3V184c2.2,0.5,4.4,1,6.6,1.3c46.9,6.6,90.3-26.1,96.9-73
			c6.6-46.9-26.1-90.3-73-96.9c-46.9-6.6-90.3,26.1-96.9,73c-1,7.3-1,14.5-0.2,21.4L203.6,109.8L203.6,109.8z M271,170.5l4-28.6
			c5.6-0.2,11.2-1.5,16.5-4l17.3,22.9C297.3,167.6,284.3,170.9,271,170.5z M321.3,151.5L304,128.6c3.9-4.3,6.8-9.3,8.6-14.7l28.5,4
			C337.8,130.8,331,142.4,321.3,151.5z M333.7,64.7c6.8,11.5,10.1,24.5,9.7,37.8l-28.8-4c-0.3-5.5-1.8-10.9-4.4-16L333.7,64.7z
			 M290.8,32.3c12.9,3.3,24.5,10.2,33.6,19.9l-23.7,17.9c-4.2-3.6-8.9-6.3-14-8L290.8,32.3z M300,104.9c-2.1,14.8-15.8,25.1-30.6,23
			c-14.8-2.1-25.1-15.8-23-30.6c2.1-14.8,15.8-25.1,30.6-23S302.1,90.1,300,104.9z M275.4,30.1l-4.2,30c-5.2,0.3-10.4,1.6-15.3,4
			l-18.3-24.3C249.1,33,262.1,29.6,275.4,30.1z M225.1,49.1l18.3,24.3c-3.6,4-6.4,8.6-8.2,13.5l-30-4.2
			C208.5,69.7,215.4,58.2,225.1,49.1z"/>
		<rect x="34.3" y="235.3" class="st0" width="11.1" height="47.2"/>
		<path class="st0" d="M104.3,184.1v-16c-3.5,1-7.2,1.7-10.9,2.1v-28.8c3.9-0.7,7.7-1.9,11.3-3.7c1.8-12,10-21.8,21.2-25.8
			c0.3-1.2,0.6-2.3,0.8-3.5h28.8c-0.1,0.5-0.2,1-0.2,1.5h15.7c0.3-3.1,0.6-6.3,0.6-9.5c0-47.4-38.4-85.8-85.8-85.8S0,52.9,0,100.3
			s38.4,85.8,85.8,85.8C92.2,186.1,98.3,185.4,104.3,184.1z M155.6,92.7h-29.1c-1.1-5.4-3.3-10.6-6.6-15.3l20.8-20.8
			C149.1,67,154.2,79.4,155.6,92.7z M93.8,30.5c13.2,1.5,25.6,6.7,36,15l-21,21c-4.6-3-9.7-5-15-6V30.5z M85.9,74
			c15,0,27.1,12.1,27.1,27.1s-12.1,27.1-27.1,27.1s-27.1-12.1-27.1-27.1S71,74,85.9,74z M78.2,30.5v30.3c-5.1,1-10.1,3.1-14.6,6.1
			L42.2,45.3C52.6,37,65,31.9,78.2,30.5z M31.1,56.3l21.5,21.5c-3.1,4.5-5.1,9.4-6.2,14.5H16.1C17.6,79,22.7,66.6,31.1,56.3z
			 M16,107.9h30.1c0.9,5.3,2.8,10.4,5.8,15l-21,21C22.5,133.5,17.4,121.1,16,107.9z M41.8,155l20.8-20.8c4.6,3.3,9.8,5.6,15.2,6.7
			V170C64.6,168.5,52.2,163.4,41.8,155z"/>
	</g>
</g>
</svg>
