<?xml version="1.0" encoding="utf-8"?>
<!-- Generator: Adobe Illustrator 27.2.0, SVG Export Plug-In . SVG Version: 6.00 Build 0)  -->
<svg version="1.1" id="Layer_1" xmlns="http://www.w3.org/2000/svg" xmlns:xlink="http://www.w3.org/1999/xlink" x="0px" y="0px"
	 viewBox="0 0 800 800" style="enable-background:new 0 0 800 800;" xml:space="preserve">
<style type="text/css">
	.st0{fill:none;stroke:#E5E4F2;stroke-width:50;stroke-linecap:round;stroke-linejoin:round;stroke-miterlimit:133.3333;}
</style>
<path class="st0" d="M566.5,133.3H233.2c-127.7,0-163.3,30.7-166.3,150c64.3,0,116.3,52.3,116.3,116.7s-52,116.3-116.3,116.7
	c3,119.3,38.7,150,166.3,150h333.3c133.3,0,166.7-33.3,166.7-166.7V300C733.2,166.7,699.8,133.3,566.5,133.3z"/>
<path class="st0" d="M299.8,133.3V250"/>
<path class="st0" d="M299.8,550v116.7"/>
<path class="st0" d="M500.8,311l20.7,41.7c2,4,6,7,10.3,7.7l46,6.7c11.3,1.7,16,15.7,7.7,23.7L552.2,423c-3.3,3-4.7,7.7-4,12.3
	l8,45.7c2,11.3-10,20-20,14.7l-41-21.7c-4-2-9-2-13,0l-41,21.7c-10.3,5.3-22-3.3-20-14.7l8-45.7c0.7-4.7-0.7-9-4-12.3l-33-32.3
	c-8.3-8-3.7-22,7.7-23.7l46-6.7c4.7-0.7,8.3-3.3,10.3-7.7l20.3-41.7C481.2,300.7,495.8,300.7,500.8,311z"/>
</svg>
