<!DOCTYPE svg PUBLIC "-//W3C//DTD SVG 1.1//EN" "http://www.w3.org/Graphics/SVG/1.1/DTD/svg11.dtd">
<!-- Uploaded to: SVG Repo, www.svgrepo.com, Transformed by: SVG Repo Mixer Tools -->
<svg fill="#8e8eed" height="800px" width="800px" version="1.1" id="Layer_1" xmlns="http://www.w3.org/2000/svg" xmlns:xlink="http://www.w3.org/1999/xlink" viewBox="0 0 512.006 512.006" xml:space="preserve" stroke="#8e8eed">
<g id="SVGRepo_bgCarrier" stroke-width="0"/>
<g id="SVGRepo_tracerCarrier" stroke-linecap="round" stroke-linejoin="round"/>
<g id="SVGRepo_iconCarrier"> <g> <g> <path d="M201.036,140.75c-0.085-0.064-0.192-0.085-0.256-0.171c-0.127-0.127-0.17-0.276-0.277-0.404l-12.907-12.907 c-0.491-0.512-1.152-0.768-1.835-0.768c-0.683,0-1.344,0.256-1.856,0.768l-56.64,56.619c-1.024,1.024-1.024,2.709,0,3.733 l13.227,13.205c16.128,16.149,44.224,16.128,60.352,0.021c8.043-8.064,12.48-18.773,12.48-30.165 C213.324,159.396,208.951,148.793,201.036,140.75z"/> </g> </g> <g> <g> <path d="M298.668,341.34c-0.001,11.776-9.537,21.333-21.335,21.333c-11.797,0-21.333-9.557-21.333-21.333v21.333 c0,11.776-9.536,21.333-21.333,21.333s-21.333-9.557-21.333-21.333V341.34h-61.248c11.691,43.797,59.264,64,103.915,64 s92.224-20.203,103.915-64H298.668z"/> </g> </g> <g> <g> <path d="M256.006,0c-141.163,0-256,114.859-256,256c0,17.173,1.749,33.941,4.992,50.176l90.432-90.432 c-15.786-17.771-15.36-44.971,1.664-62.016l56.64-56.619c16.981-17.024,44.245-17.451,62.016-1.664l90.411-90.432 C289.926,1.771,273.18,0,256.006,0z"/> </g> </g> <g> <g> <path d="M352.491,19.036L243.968,127.558C251.605,140.529,256,155.206,256,170.673c0,22.784-8.875,44.224-25.003,60.331 c-16.107,16.128-37.547,25.003-60.331,25.003c-15.467,0-30.144-4.395-43.115-12.053L19.029,352.476 C57.216,445.937,148.971,512.006,256,512.006c141.163,0,256-114.837,256-256C512,148.977,445.931,57.222,352.491,19.036z M256,448.006c-86.528,0-149.333-53.824-149.333-128c0-11.776,9.536-21.333,21.333-21.333h256 c11.797,0,21.333,9.557,21.333,21.333C405.333,394.182,342.528,448.006,256,448.006z M341.333,277.34 c-47.061,0-85.333-38.272-85.333-85.333c0-47.061,38.272-85.333,85.333-85.333c47.061,0,85.333,38.272,85.333,85.333 C426.666,239.068,388.395,277.34,341.333,277.34z"/> </g> </g> <g> <g> <path d="M341.333,170.673c-11.776,0-21.333,9.557-21.333,21.333s9.557,21.333,21.333,21.333s21.333-9.557,21.333-21.333 S353.109,170.673,341.333,170.673z"/> </g> </g> </g>
</svg>