<?xml version="1.0" encoding="utf-8"?>
<!-- Generator: Adobe Illustrator 27.2.0, SVG Export Plug-In . SVG Version: 6.00 Build 0)  -->
<svg version="1.1" id="_24x24_On_Light_Media" xmlns="http://www.w3.org/2000/svg" xmlns:xlink="http://www.w3.org/1999/xlink"
	 x="0px" y="0px" viewBox="0 0 800 800" style="enable-background:new 0 0 800 800;" xml:space="preserve">
<style type="text/css">
	.st0{fill:none;}
	.st1{fill:#E5E4F2;}
</style>
<rect id="view-box" class="st0" width="800" height="800"/>
<path id="Shape" class="st1" d="M290.5,725c-45.3,0.2-83.9-32.9-90.6-77.7l-58-376.8c-2.1-13.6,7.3-26.4,20.9-28.5
	c1.3-0.2,2.5-0.3,3.8-0.3h10c-5.6-24.3,0.2-49.7,15.8-69.2c19.4-22.9,49.4-33.9,79-29c7.8-27.3,29.4-48.5,56.9-55.8
	c27.7-7.1,57.2-0.1,78.7,18.8c20.5-24.8,53.2-36,84.6-29c29,6.6,51.5,29.6,57.5,58.7c33,2.5,61.4,24.2,72.5,55.4
	c5.6,16.1,6.4,33.5,2.3,50h9.4c13.8,0,25,11.2,25,25c0,1.3-0.1,2.6-0.3,3.8l-58,376.7c-6.6,44.9-45.3,78.1-90.6,77.9H290.5z
	 M509.5,675c20.6,0.1,38.2-14.9,41.2-35.3l53.5-348h-95.5L491.3,675H509.5z M441.3,675l17.4-383.3H341.3L358.7,675H441.3z
	 M249.3,639.7c3,20.4,20.6,35.4,41.2,35.3h18.1l-17.4-383.3h-95.4L249.3,639.7z M571.8,241.7c4.6-10,5.8-21.3,3.2-32
	c-6.9-18-20.2-25.5-45.9-24.2c-13.8,0.7-25.6-9.8-26.3-23.6c0-0.1,0-0.1,0-0.2c-1-22-8.1-31.9-23.2-35.7c-15.1-3.9-30.8,4.9-50,31.6
	c-8.1,11.2-23.7,13.8-34.9,5.7c-1.5-1.1-2.9-2.4-4.2-3.8c-18.3-20.9-33.9-27.4-49-23.3c-14.6,3.9-23.1,15.6-26.3,40.4
	c-1.8,13.7-14.3,23.4-28.1,21.6c-1.5-0.2-3-0.5-4.4-1c-25.5-8.3-41-5.2-52.3,7.8c-6.7,11.1-7.7,24.7-2.8,36.7H571.8z"/>
</svg>
