<?xml version="1.0" encoding="utf-8"?>
<!-- Generator: Adobe Illustrator 27.2.0, SVG Export Plug-In . SVG Version: 6.00 Build 0)  -->
<svg version="1.1" id="Layer_1" xmlns="http://www.w3.org/2000/svg" xmlns:xlink="http://www.w3.org/1999/xlink" x="0px" y="0px"
	 viewBox="0 0 800 800" style="enable-background:new 0 0 800 800;" xml:space="preserve">
<style type="text/css">
	.st0{fill:#E5E4F2;}
</style>
<path class="st0" d="M745.5,654.5L561.5,494c28.1-40.7,43.1-89,43-138.5c-6.2-146.1-128.8-260-275-255.5
	c-146.8-4.2-269.6,110.7-275,257.5c5.2,146.9,128.1,262,275,257.5c70.4,0.4,138.4-25.3,191-72L704,700L745.5,654.5z M329.5,550
	c-112.4,4.5-207.4-82.6-212.5-195c5.1-112.4,100.1-199.5,212.5-195c112.4-4.5,207.4,82.6,212.5,195C537.1,467.5,442,554.8,329.5,550
	z"/>
</svg>
