<?xml version="1.0" encoding="utf-8"?>
<!-- Generator: Adobe Illustrator 27.5.0, SVG Export Plug-In . SVG Version: 6.00 Build 0)  -->
<svg version="1.1" id="Layer_1" xmlns="http://www.w3.org/2000/svg" xmlns:xlink="http://www.w3.org/1999/xlink" x="0px" y="0px"
	 viewBox="0 0 800 800" style="enable-background:new 0 0 800 800;" xml:space="preserve">
<style type="text/css">
	
		.st0{opacity:0.32;fill:none;stroke:#8E8EED;stroke-width:50;stroke-linecap:round;stroke-linejoin:round;stroke-miterlimit:133.3333;}
</style>
<path class="st0" d="M457.7,117l58.7,117.3c8,16.3,29.3,32,47.3,35L670,287c68,11.3,84,60.7,35,109.3L622.3,479
	c-14,14-21.7,41-17.3,60.3l23.7,102.3c18.7,81-24.3,112.3-96,70l-99.7-59c-18-10.7-47.7-10.7-66,0l-99.7,59
	c-71.3,42.3-114.7,10.7-96-70L195,539.3c4.3-19.3-3.3-46.3-17.3-60.3L95,396.3c-48.7-48.7-33-98,35-109.3l106.3-17.7
	c17.7-3,39-18.7,47-35L342,117C374,53.3,426,53.3,457.7,117z"/>
</svg>
