<?xml version="1.0" encoding="utf-8"?>
<!-- Generator: Adobe Illustrator 27.2.0, SVG Export Plug-In . SVG Version: 6.00 Build 0)  -->
<svg version="1.1" id="Layer_1" xmlns="http://www.w3.org/2000/svg" xmlns:xlink="http://www.w3.org/1999/xlink" x="0px" y="0px"
	 viewBox="0 0 800 800" style="enable-background:new 0 0 800 800;" xml:space="preserve">
<style type="text/css">
	.st0{fill:none;stroke:#E5E4F2;stroke-width:50;stroke-linecap:round;stroke-linejoin:round;stroke-miterlimit:133.3333;}
	
		.st1{opacity:0.4;fill:none;stroke:#E7E7F2;stroke-width:50;stroke-linecap:round;stroke-linejoin:round;stroke-miterlimit:133.3333;enable-background:new    ;}
</style>
<path class="st0" d="M513,173.7l47,94c6.3,13,23.3,25.3,37.7,28l85,14c54.3,9,67,48.3,28,87.7l-66.3,66.3
	c-11,11-17.3,32.7-13.7,48.3l19,82c15,64.7-19.7,90-76.7,56l-79.7-47.3c-14.3-8.7-38.3-8.7-52.7,0L361,650
	c-57,33.7-91.7,8.7-76.7-56l19-82c3.7-15.3-2.7-37-13.7-48.3l-66.3-66.3c-39-39-26.3-78.3,28-87.7l85-14c14.3-2.3,31.3-15,37.7-28
	l47-94C446,122.7,487.4,122.7,513,173.7z"/>
<path class="st1" d="M266.7,166.7h-200"/>
<path class="st1" d="M166.7,633.3h-100"/>
<path class="st1" d="M100,400H66.7"/>
</svg>
